<svg xmlns="http://www.w3.org/2000/svg" viewBox="0 0 100 100">
  <!-- body -->
  <ellipse cx="50" cy="65" rx="28" ry="24" fill="#5DC85D"/>
  <!-- belly -->
  <ellipse cx="50" cy="68" rx="18" ry="16" fill="#A8ECA8"/>
  <!-- head -->
  <ellipse cx="50" cy="48" rx="26" ry="22" fill="#5DC85D"/>
  <!-- eye bumps -->
  <circle cx="34" cy="36" r="9" fill="#5DC85D"/>
  <circle cx="66" cy="36" r="9" fill="#5DC85D"/>
  <!-- eyes -->
  <circle cx="34" cy="36" r="7" fill="white"/>
  <circle cx="66" cy="36" r="7" fill="white"/>
  <circle cx="34" cy="37" r="4.5" fill="#1A1A1A"/>
  <circle cx="66" cy="37" r="4.5" fill="#1A1A1A"/>
  <circle cx="32" cy="35" r="1.5" fill="white"/>
  <circle cx="64" cy="35" r="1.5" fill="white"/>
  <!-- mouth -->
  <path d="M36 56 Q50 64 64 56" stroke="#2E8B2E" stroke-width="2.5" fill="none" stroke-linecap="round"/>
  <!-- nostrils -->
  <circle cx="46" cy="51" r="1.8" fill="#2E8B2E"/>
  <circle cx="54" cy="51" r="1.8" fill="#2E8B2E"/>
  <!-- arms -->
  <ellipse cx="22" cy="68" rx="8" ry="6" fill="#5DC85D" transform="rotate(-20,22,68)"/>
  <ellipse cx="78" cy="68" rx="8" ry="6" fill="#5DC85D" transform="rotate(20,78,68)"/>
  <!-- number badge -->
  <rect x="40" y="60" width="20" height="14" rx="4" fill="#FFD700"/>
  <text x="50" y="72" text-anchor="middle" font-size="10" font-weight="bold" fill="#333">123</text>
</svg>
